<mxfile host="app.diagrams.net" modified="2020-06-08T03:24:37.392Z" agent="5.0 (Macintosh; Intel Mac OS X 10_14_6) AppleWebKit/605.1.15 (KHTML, like Gecko) Version/12.1.2 Safari/605.1.15" etag="USag0H63AERlG9zjkMIo" version="13.1.14" type="github">
  <diagram id="fd3TSlRkCUW_DkWuyYF7" name="Page-1">
    <mxGraphModel dx="410" dy="461" grid="1" gridSize="10" guides="1" tooltips="1" connect="1" arrows="1" fold="1" page="1" pageScale="1" pageWidth="850" pageHeight="1100" background="#ffffff" math="0" shadow="0" extFonts="Acme^https://fonts.googleapis.com/css?family=Acme">
      <root>
        <mxCell id="0" />
        <mxCell id="1" parent="0" />
        <mxCell id="CTv6-R48E7aExp1AT2_k-21" value="" style="rounded=1;whiteSpace=wrap;html=1;absoluteArcSize=1;arcSize=14;strokeWidth=5;glass=0;fillColor=#0050ef;fontSize=47;fontColor=#ffffff;opacity=90;strokeColor=#001DBC;" vertex="1" parent="1">
          <mxGeometry x="219" y="519" width="150" height="150" as="geometry" />
        </mxCell>
        <mxCell id="CTv6-R48E7aExp1AT2_k-1" value="" style="group;fontStyle=0" vertex="1" connectable="0" parent="1">
          <mxGeometry x="40" y="10" width="130" height="200" as="geometry" />
        </mxCell>
        <mxCell id="XfNiQm2zIUUJR62hFALY-1" value="Zaji" style="text;html=1;align=center;verticalAlign=middle;resizable=0;points=[];autosize=1;rotation=0;strokeWidth=11;fontSize=54;fontFamily=Acme;FType=g;" parent="CTv6-R48E7aExp1AT2_k-1" vertex="1">
          <mxGeometry y="50" width="100" height="70" as="geometry" />
        </mxCell>
        <mxCell id="XfNiQm2zIUUJR62hFALY-6" value="" style="edgeStyle=isometricEdgeStyle;endArrow=none;html=1;fontSize=54;shape=link;elbow=vertical;" parent="CTv6-R48E7aExp1AT2_k-1" target="XfNiQm2zIUUJR62hFALY-9" edge="1">
          <mxGeometry width="50" height="100" relative="1" as="geometry">
            <mxPoint x="120" y="190" as="sourcePoint" />
            <mxPoint x="46.78" y="40" as="targetPoint" />
            <Array as="points">
              <mxPoint x="80" y="120" />
            </Array>
          </mxGeometry>
        </mxCell>
        <mxCell id="XfNiQm2zIUUJR62hFALY-9" value="" style="ellipse;shape=doubleEllipse;whiteSpace=wrap;html=1;aspect=fixed;" parent="CTv6-R48E7aExp1AT2_k-1" vertex="1">
          <mxGeometry x="6.780000000000001" width="20" height="20" as="geometry" />
        </mxCell>
        <mxCell id="XfNiQm2zIUUJR62hFALY-17" value="" style="ellipse;shape=doubleEllipse;whiteSpace=wrap;html=1;aspect=fixed;" parent="CTv6-R48E7aExp1AT2_k-1" vertex="1">
          <mxGeometry x="110" y="180" width="20" height="20" as="geometry" />
        </mxCell>
        <mxCell id="CTv6-R48E7aExp1AT2_k-2" value="" style="group" vertex="1" connectable="0" parent="1">
          <mxGeometry x="220" y="260" width="130" height="200" as="geometry" />
        </mxCell>
        <mxCell id="CTv6-R48E7aExp1AT2_k-3" value="Zaji" style="text;html=1;align=center;verticalAlign=middle;resizable=0;points=[];autosize=1;rotation=0;strokeWidth=11;fontSize=54;fontFamily=Acme;FType=g;" vertex="1" parent="CTv6-R48E7aExp1AT2_k-2">
          <mxGeometry y="50" width="100" height="70" as="geometry" />
        </mxCell>
        <mxCell id="CTv6-R48E7aExp1AT2_k-4" value="" style="edgeStyle=isometricEdgeStyle;endArrow=none;html=1;fontSize=54;shape=link;elbow=vertical;" edge="1" parent="CTv6-R48E7aExp1AT2_k-2" target="CTv6-R48E7aExp1AT2_k-5">
          <mxGeometry width="50" height="100" relative="1" as="geometry">
            <mxPoint x="120" y="190" as="sourcePoint" />
            <mxPoint x="46.78" y="40" as="targetPoint" />
            <Array as="points">
              <mxPoint x="80" y="120" />
            </Array>
          </mxGeometry>
        </mxCell>
        <mxCell id="CTv6-R48E7aExp1AT2_k-5" value="" style="ellipse;shape=doubleEllipse;whiteSpace=wrap;html=1;aspect=fixed;" vertex="1" parent="CTv6-R48E7aExp1AT2_k-2">
          <mxGeometry x="6.780000000000001" width="20" height="20" as="geometry" />
        </mxCell>
        <mxCell id="CTv6-R48E7aExp1AT2_k-6" value="" style="ellipse;shape=doubleEllipse;whiteSpace=wrap;html=1;aspect=fixed;" vertex="1" parent="CTv6-R48E7aExp1AT2_k-2">
          <mxGeometry x="110" y="180" width="20" height="20" as="geometry" />
        </mxCell>
        <mxCell id="CTv6-R48E7aExp1AT2_k-18" value="" style="whiteSpace=wrap;html=1;strokeWidth=4;fontSize=54;fillColor=#0000B3;" vertex="1" parent="1">
          <mxGeometry x="230" y="530" width="128" height="128" as="geometry" />
        </mxCell>
        <mxCell id="CTv6-R48E7aExp1AT2_k-13" value="" style="group;rounded=0;glass=0;fontColor=#FFFFFF;opacity=20;" vertex="1" connectable="0" parent="1">
          <mxGeometry x="260" y="530" width="80" height="130" as="geometry" />
        </mxCell>
        <mxCell id="CTv6-R48E7aExp1AT2_k-15" value="" style="edgeStyle=isometricEdgeStyle;endArrow=none;html=1;fontSize=54;shape=link;elbow=vertical;strokeColor=#FFFFFF;strokeWidth=3;" edge="1" parent="CTv6-R48E7aExp1AT2_k-13" target="CTv6-R48E7aExp1AT2_k-16">
          <mxGeometry width="50" height="100" relative="1" as="geometry">
            <mxPoint x="73.84615384615384" y="123.5" as="sourcePoint" />
            <mxPoint x="28.78769230769231" y="26" as="targetPoint" />
            <Array as="points">
              <mxPoint x="49.23076923076923" y="78" />
            </Array>
          </mxGeometry>
        </mxCell>
        <mxCell id="CTv6-R48E7aExp1AT2_k-16" value="" style="ellipse;shape=doubleEllipse;whiteSpace=wrap;html=1;aspect=fixed;strokeColor=#0000B3;" vertex="1" parent="CTv6-R48E7aExp1AT2_k-13">
          <mxGeometry x="4.172307692307693" width="11.764705882352942" height="11.764705882352942" as="geometry" />
        </mxCell>
        <mxCell id="CTv6-R48E7aExp1AT2_k-17" value="" style="ellipse;shape=doubleEllipse;whiteSpace=wrap;html=1;aspect=fixed;fillColor=#ffffff;strokeColor=#0000B3;" vertex="1" parent="CTv6-R48E7aExp1AT2_k-13">
          <mxGeometry x="67.6923076923077" y="117" width="11.764705882352942" height="11.764705882352942" as="geometry" />
        </mxCell>
        <mxCell id="CTv6-R48E7aExp1AT2_k-14" value="Zaji" style="text;html=1;align=center;verticalAlign=middle;resizable=0;points=[];autosize=1;rotation=0;strokeWidth=11;fontSize=47;fontFamily=Acme;FType=g;fontColor=#FFFFFF;" vertex="1" parent="1">
          <mxGeometry x="232.69" y="555" width="90" height="60" as="geometry" />
        </mxCell>
      </root>
    </mxGraphModel>
  </diagram>
</mxfile>
